# Blender 4.1.1
# www.blender.org
mtllib rail.mtl
o 平面
v 0.800000 0.000000 1.000000
v 1.000000 0.000000 1.000000
v 0.800000 0.000000 -1.000000
v 1.000000 0.000000 -1.000000
v -1.000000 0.000000 1.000000
v -0.800000 0.000000 1.000000
v -1.000000 0.000000 -1.000000
v -0.800000 0.000000 -1.000000
v -0.800000 0.000000 -0.550000
v 0.800000 0.000000 -0.550000
v -0.800000 0.000000 -0.750000
v 0.800000 0.000000 -0.750000
v -0.800000 0.000000 0.100000
v 0.800000 0.000000 0.100000
v -0.800000 0.000000 -0.100000
v 0.800000 0.000000 -0.100000
v -0.800000 0.000000 0.750000
v 0.800000 0.000000 0.750000
v -0.800000 0.000000 0.550000
v 0.800000 0.000000 0.550000
vn -0.0000 1.0000 -0.0000
vt 0.341270 0.341270
vt 0.658730 0.658730
vt 0.341270 0.658730
vt 0.007937 0.658730
vt 0.325397 0.341270
vt 0.325397 0.658730
vt 0.007937 0.325397
vt 0.325397 0.007937
vt 0.325397 0.325397
vt 0.341270 0.325397
vt 0.658730 0.007937
vt 0.658730 0.325397
vt 0.007936 0.674603
vt 0.325397 0.992063
vt 0.007937 0.992063
vt 0.658730 0.341270
vt 0.007937 0.341270
vt 0.007937 0.007937
vt 0.341270 0.007937
vt 0.325397 0.674603
s 0
usemtl マテリアル
f 2/1/1 3/2/1 1/3/1
f 6/4/1 7/5/1 5/6/1
f 10/7/1 11/8/1 9/9/1
f 14/10/1 15/11/1 13/12/1
f 18/13/1 19/14/1 17/15/1
f 2/1/1 4/16/1 3/2/1
f 6/4/1 8/17/1 7/5/1
f 10/7/1 12/18/1 11/8/1
f 14/10/1 16/19/1 15/11/1
f 18/13/1 20/20/1 19/14/1
