# Blender 4.1.1
# www.blender.org
mtllib player_leftShoulder.mtl
o 立方体
v 0.496663 -0.004033 -0.200000
v 0.008974 0.133256 -0.200000
v 0.496663 -0.004033 0.200000
v 0.008974 0.133256 0.200000
v 0.667870 -0.756292 -0.103737
v 0.467473 -0.755733 -0.103737
v 0.667870 -0.756292 0.103737
v 0.467473 -0.755733 0.103737
vn 0.2710 0.9626 -0.0000
vn -0.0004 -0.1270 0.9919
vn -0.0028 -1.0000 -0.0000
vn -0.0004 -0.1270 -0.9919
vn 0.9751 0.2219 -0.0000
vn -0.8888 -0.4584 -0.0000
vn -0.0354 -0.1256 0.9915
vn -0.0354 -0.1256 -0.9915
vt 0.625000 0.000000
vt 0.375000 0.250000
vt 0.375000 0.000000
vt 0.625000 0.500000
vt 0.375000 0.500000
vt 0.375000 0.750000
vt 0.625000 0.750000
vt 0.375000 1.000000
vt 0.125000 0.750000
vt 0.125000 0.500000
vt 0.875000 0.500000
vt 0.625000 0.250000
vt 0.625000 1.000000
vt 0.875000 0.750000
s 0
f 2/1/1 3/2/1 1/3/1
f 3/2/2 8/4/2 7/5/2
f 8/4/3 5/6/3 7/5/3
f 6/7/4 1/8/4 5/6/4
f 7/5/5 1/9/5 3/10/5
f 4/11/6 6/7/6 8/4/6
f 2/1/1 4/12/1 3/2/1
f 3/2/7 4/12/7 8/4/7
f 8/4/3 6/7/3 5/6/3
f 6/7/8 2/13/8 1/8/8
f 7/5/5 5/6/5 1/9/5
f 4/11/6 2/14/6 6/7/6
